<svg xmlns="http://www.w3.org/2000/svg" width="31.551" height="26.643" viewBox="0 0 31.551 26.643"><defs><style>.a{fill:#fffbf7;}</style></defs><g transform="translate(-33.827 -31)"><path class="a" d="M60.3,15.931V17a15.343,15.343,0,0,1-.564,3.448c-2.612.169-9.545.611-10.691.7a35.558,35.558,0,0,0-7.882,1.879,3.527,3.527,0,0,1-2.875.282h0a1.484,1.484,0,0,1-.244-.122.713.713,0,0,1-.066-.169,1.137,1.137,0,0,1-.263-.432,1.381,1.381,0,0,1,.169-1.306,3.814,3.814,0,0,1,1.691-1.033h0q.385-.15.845-.31l.319-.122.488-.169h0c.883-.31,1.879-.7,3.138-1.24a5.439,5.439,0,0,0,3.166-3.1,5.251,5.251,0,0,0-.1-3.448c.31-.395.611-.761.939-1.127s.564-.7.827-1.043.517-.648.761-.939.47-.6.7-.874c5.1,3.758,7.966,5.111,9.263,5.58A9.2,9.2,0,0,1,60.3,15.931Z" transform="translate(1.694 30.523)"/><path class="a" d="M46.48,5.472l-.77.939h0L44.9,7.4h0l-.836,1.024h0L43.21,9.474a5.476,5.476,0,0,0-.714.16c-1.39.423-4.462,1.879-5.28,3.429a12.429,12.429,0,0,0-.939,4.923l-1.484,1.879-.216.272-.686.855C33.224,18.22,32.322,13,33.7,11.446a42.829,42.829,0,0,1,9.2-6.867C44.131,4.025,45.766,4.964,46.48,5.472Z" transform="translate(1.975 30.733)"/><path class="a" d="M54.082,1l-.169.216v.047L52.8,2.668l-.056.075L52.532,3,50,6.172c-.1.113-.207.244-.3.366s-.2.244-.291.376L47.375,9.46l-.047.066-.761.939-.3.376a.713.713,0,0,0-.075.1l-.216.263h0l-.639.8c-.188.235-.376.479-.573.714a1.222,1.222,0,0,1-.169.216l-.639.808-.723.939-.272.348h0L41.08,17.37l-.8,1-.263.094c-1.6.564-2.659.939-3.307,1.776a2.358,2.358,0,0,0-.028,2.687l-1.719,2.161L31.78,26.642a20.9,20.9,0,0,1,1.062-3.016l.066-.085.085-.113.169-.225c.066-.094.16-.207.272-.348h0l.244-.31.1-.132.075-.094a2.956,2.956,0,0,1,.225-.282l.066-.075h0l.366-.46.085-.113.761-.939.291-.366.31-.385.2-.254.169-.207.169-.207.5-.611,1.879-2.339.282-.348.939-1.127.845-1.052V13.5L43.6,10.2l.385-.47c.113-.15.235-.291.348-.432l.423-.526,1.776-2.2q.338-.442.676-.845l.3-.366.3-.366L51.245.733A2.264,2.264,0,0,1,51.63.385L51.781.3a1.8,1.8,0,0,1,.3-.15L52.26.085,52.579,0h.16a2.1,2.1,0,0,1,.488.047,1.418,1.418,0,0,1,.263.094,1.043,1.043,0,0,1,.338.244h0a1.485,1.485,0,0,1,.141.225V.676h0a1.306,1.306,0,0,1,0,.216V.939A.1.1,0,0,1,54.082,1Z" transform="translate(2.047 31)"/><path class="a" d="M64.661,21.114A2.057,2.057,0,0,1,62.585,22.6a.733.733,0,0,1-.573-.319.7.7,0,0,1-.094-.611h0a1.709,1.709,0,0,1,.141-.479c.056-.16.113-.432.169-.667a16.26,16.26,0,0,0,.47-3.213,10.321,10.321,0,0,0,0-1.08,10.089,10.089,0,0,0-.573-3.119H62.5l1.287.066c.46,0,.526.2.554.263A11.781,11.781,0,0,1,64.661,21.114Z" transform="translate(0.224 30.206)"/></g></svg>